<?xml version="1.0" encoding="utf-8"?>
<!-- Generator: Adobe Illustrator 22.0.1, SVG Export Plug-In . SVG Version: 6.00 Build 0)  -->
<svg version="1.1" id="Layer_1" xmlns="http://www.w3.org/2000/svg" xmlns:xlink="http://www.w3.org/1999/xlink" x="0px" y="0px"
	 viewBox="0 0 1809.2 517.3" style="enable-background:new 0 0 1809.2 517.3;" xml:space="preserve">
<style type="text/css">
	.st0{fill:#070C17;}
	.st1{display:none;}
	.st2{display:inline;fill:#FFFFFF;}
	.st3{fill:#00AE64;}
	.st4{fill:#00E885;}
	.st5{fill:#00B165;}
	.st6{fill:#007241;}
	.st7{fill:#00A05C;}
	.st8{fill:#006A3D;}
</style>
<g>
	<path class="st0" d="M636.1,448.7c-28.7,0-46.5-12.9-59.2-28v25.2h-53V189.8h53v94.8c13.1-17.5,31.2-30.4,59.2-30.4
		c44.3,0,86.5,34.3,86.5,96.9v0.7C722.6,414.4,681.1,448.7,636.1,448.7z M669.6,349.8c0-31.6-21.3-52.6-46.6-52.6
		c-25.2,0-46.2,21-46.2,52.6v0.7c0,31.6,21,52.6,46.2,52.6c25.2,0,46.6-20.6,46.6-52.6V349.8z"/>
	<path class="st0" d="M843,448.2c-14.3,38.1-29.7,52.5-61.6,52.5c-19.2,0-33.6-4.9-47.2-12.9l17.8-38.5c7,4.2,15.7,7.3,22.7,7.3
		c9.1,0,14-2.8,18.5-12.3L719.8,256h56.3l42.7,127.7L859.8,256h55.3L843,448.2z"/>
	<path class="st0" d="M993.9,447.3c-32.7,0-54.9-13-54.9-56.7v-90.5h-22.1V256h26.5v-48.6h53V256h44.2v44.2H992v80.1
		c0,12.3,5.3,18.2,17.5,18.2c10,0,18.9-2.4,26.7-6.6v44.5C1024.9,443.1,1011.9,447.3,993.9,447.3z"/>
	<path class="st0" d="M1234.2,370.9h-131.5c5.3,24.1,22.2,36.7,46.2,36.7c18,0,31-5.6,45.8-19.2l30.7,26.9c-17.6,21.7-43,35-77.2,35
		c-56.8,0-98.7-39.5-98.7-96.9v-0.7c0-53.5,38.4-97.6,93.5-97.6c63.1,0,92,48.6,92,101.8v0.7C1234.9,362.8,1234.6,366,1234.2,370.9z
		 M1142.2,295.6c-22,0-36.4,15.7-40.6,39.9h80.1C1178.6,311.7,1164.6,295.6,1142.2,295.6z"/>
	<path class="st0" d="M1327.9,445c-24.2,0-51.3-8.1-74.1-26.1l21-32.2c18.7,13.5,38.4,20.6,54.5,20.6c14.2,0,20.6-5.2,20.6-12.9V391
		c0-11.3-17.8-15.1-38-21.2c-25.7-7.5-54.8-19.5-54.8-55.1v-3.9c0-35.1,28.4-54.8,63.2-54.8c21.9,0,45.8,7.4,64.5,20l-18.7,33.8
		c-17.1-10-34.2-16.1-46.7-16.1c-11.9,0-18.1,5.2-18.1,11.9v3.5c0,10.3,17.5,15.1,37.3,21.9c25.7,8.6,55.4,20.9,55.4,54.4v3.8
		C1394,427.6,1365.3,445,1327.9,445z"/>
</g>
<path class="st0" d="M1410.3,415.4c0-8.9,2.4-15.7,7.2-20.2c4.8-4.6,11.7-6.9,20.9-6.9c8.8,0,15.6,2.3,20.5,7s7.3,11.4,7.3,20.1
	c0,8.4-2.4,15-7.3,19.8s-11.7,7.3-20.4,7.3c-8.9,0-15.8-2.4-20.7-7.1C1412.7,430.7,1410.3,424,1410.3,415.4z"/>
<path class="st0" d="M1556.1,441.4c-55.5,0-83.2-30.4-83.2-91.3c0-30.3,7.5-53.4,22.6-69.4s36.7-24,64.9-24c20.6,0,39.1,4,55.5,12.1
	l-14.3,37.6c-7.7-3.1-14.8-5.6-21.4-7.6c-6.6-2-13.2-2.9-19.8-2.9c-25.3,0-37.9,18-37.9,53.9c0,34.9,12.6,52.3,37.9,52.3
	c9.4,0,18-1.2,26-3.7c8-2.5,15.9-6.4,23.9-11.7v41.6c-7.9,5-15.8,8.4-23.8,10.4C1578.4,440.4,1568.3,441.4,1556.1,441.4z"/>
<path class="st0" d="M1800.3,348.7c0,29-7.7,51.7-23,68.1s-36.6,24.5-63.9,24.5c-17.1,0-32.2-3.7-45.3-11.2
	c-13.1-7.5-23.1-18.3-30.1-32.3c-7-14-10.5-30.4-10.5-49.1c0-29.1,7.6-51.8,22.8-67.9c15.2-16.2,36.6-24.2,64.1-24.2
	c17.1,0,32.2,3.7,45.3,11.2s23.1,18.1,30.1,32S1800.3,330,1800.3,348.7z M1677.1,348.7c0,17.6,2.9,31,8.7,40s15.2,13.6,28.3,13.6
	c13,0,22.3-4.5,28-13.5s8.5-22.3,8.5-40.1c0-17.6-2.9-30.9-8.6-39.7c-5.7-8.8-15.1-13.2-28.2-13.2c-13,0-22.3,4.4-28.1,13.2
	C1679.9,317.7,1677.1,331,1677.1,348.7z"/>
<g class="st1">
	<path class="st2" d="M843.8,301.4c-6.4,0-10.4-2.9-13.2-6.3v5.5h-12v-57.8h12v21.5c2.9-4,7-6.9,13.2-6.9c9.9,0,19.3,7.8,19.3,21.9
		v0.2C863.1,293.6,853.9,301.4,843.8,301.4z M851.1,279.2c0-7.1-4.8-11.7-10.4-11.7c-5.6,0-10.3,4.7-10.3,11.7v0.2
		c0,7.1,4.7,11.7,10.3,11.7c5.6,0,10.4-4.6,10.4-11.7V279.2z"/>
	<path class="st2" d="M891,301.6c-3.2,8.6-6.7,11.9-13.9,11.9c-4.4,0-7.6-1.1-10.7-2.9l4-8.7c1.6,1,3.6,1.7,5.2,1.7
		c2.1,0,3.2-0.6,4.2-2.8l-16.6-42.6h12.8l9.7,28.9l9.3-28.9h12.5L891,301.6z"/>
	<path class="st2" d="M925.6,301.3c-7.4,0-12.4-2.9-12.4-12.8v-20.1h-5.1v-10.3h5.1v-10.9h12v10.9h10v10.3h-10v18.1
		c0,2.8,1.2,4.1,3.9,4.1c2.2,0,4.2-0.6,5.9-1.5v9.7C932.6,300.3,929.6,301.3,925.6,301.3z"/>
	<path class="st2" d="M979.2,283.5h-29.6c1.2,5.5,5,8.3,10.4,8.3c4,0,7-1.3,10.3-4.4l6.9,6.1c-4,4.9-9.7,7.9-17.4,7.9
		c-12.8,0-22.2-9-22.2-21.9v-0.2c0-12.1,8.6-22.1,21-22.1c14.2,0,20.7,11,20.7,23.1v0.2C979.4,281.7,979.3,282.4,979.2,283.5z
		 M958.7,267c-5,0-8.2,3.6-9.2,9h18.1C966.9,270.6,963.8,267,958.7,267z"/>
	<path class="st2" d="M1000.1,301.4c-5.9,0-12.6-2-18.2-6.4l5.2-7.9c4.6,3.3,9.4,5.1,13.4,5.1c3.5,0,5.1-1.3,5.1-3.2v-0.2
		c0-2.6-4.1-3.5-8.8-4.9c-5.9-1.7-12.7-4.5-12.7-12.8v-0.2c0-8.6,7-13.5,15.5-13.5c5.4,0,11.3,1.8,15.8,4.9l-4.6,8.3
		c-4.2-2.5-8.4-4-11.5-4c-2.9,0-4.4,1.3-4.4,2.9v0.2c0,2.4,4,3.5,8.6,5.1c5.9,2,12.8,4.8,12.8,12.6v0.2
		C1016.3,297.1,1009.2,301.4,1000.1,301.4z"/>
</g>
<g>
	<rect x="133.8" y="134.5" class="st3" width="124.1" height="124.1"/>
	<rect x="257.8" y="258.6" class="st4" width="124.1" height="124.1"/>
	<rect x="9.7" y="10.5" class="st5" width="124.1" height="124.1"/>
	<rect x="257.8" y="134.5" class="st6" width="124.1" height="124.1"/>
	<rect x="257.8" y="382.6" class="st7" width="124.1" height="124.1"/>
	<rect x="133.8" y="382.6" class="st8" width="124.1" height="124.1"/>
	<rect x="9.7" y="134.5" class="st4" width="124.1" height="372.2"/>
</g>
<path class="st0" d="M1410.3,415.4c0-8.9,2.4-15.7,7.2-20.2c4.8-4.6,11.7-6.9,20.9-6.9c8.8,0,15.6,2.3,20.5,7s7.3,11.4,7.3,20.1
	c0,8.4-2.4,15-7.3,19.8s-11.7,7.3-20.4,7.3c-8.9,0-15.8-2.4-20.7-7.1C1412.7,430.7,1410.3,424,1410.3,415.4z"/>
<path class="st0" d="M1556.2,441.4c-55.5,0-83.2-30.4-83.2-91.3c0-30.3,7.5-53.4,22.6-69.4s36.7-24,64.9-24c20.6,0,39.1,4,55.5,12.1
	l-14.3,37.6c-7.7-3.1-14.8-5.6-21.4-7.6c-6.6-2-13.2-2.9-19.8-2.9c-25.3,0-37.9,18-37.9,53.9c0,34.9,12.6,52.3,37.9,52.3
	c9.4,0,18-1.2,26-3.7c8-2.5,15.9-6.4,23.9-11.7v41.6c-7.9,5-15.8,8.4-23.8,10.4C1578.5,440.4,1568.4,441.4,1556.2,441.4z"/>
<path class="st0" d="M1800.3,348.7c0,29-7.7,51.7-23,68.1s-36.6,24.5-63.9,24.5c-17.1,0-32.2-3.7-45.3-11.2
	c-13.1-7.5-23.1-18.3-30.1-32.3c-7-14-10.5-30.4-10.5-49.1c0-29.1,7.6-51.8,22.8-67.9c15.2-16.2,36.6-24.2,64.1-24.2
	c17.1,0,32.2,3.7,45.3,11.2s23.1,18.1,30.1,32S1800.3,330,1800.3,348.7z M1677.1,348.7c0,17.6,2.9,31,8.7,40s15.2,13.6,28.3,13.6
	c13,0,22.3-4.5,28-13.5s8.5-22.3,8.5-40.1c0-17.6-2.9-30.9-8.6-39.7c-5.7-8.8-15.1-13.2-28.2-13.2c-13,0-22.3,4.4-28.1,13.2
	C1679.9,317.7,1677.1,331,1677.1,348.7z"/>
<g>
</g>
<g>
</g>
<g>
</g>
<g>
</g>
<g>
</g>
<g>
</g>
<g>
</g>
<g>
</g>
<g>
</g>
<g>
</g>
<g>
</g>
<g>
</g>
<g>
</g>
<g>
</g>
<g>
</g>
</svg>
